<svg xmlns="http://www.w3.org/2000/svg" width="40" height="40" xmlns:v="https://vecta.io/nano"><rect width="40" height="40" rx="8" fill="#fff"/><path d="M22.015 9.779a6.98 6.98 0 0 0-7.45 2.167l3.3 2.773z" fill="#1a73e8"/><path d="M14.564 11.946a6.95 6.95 0 0 0-1.635 4.485 7.87 7.87 0 0 0 .691 3.328l4.24-5.04z" fill="#ea4335"/><path d="M19.907 13.764a2.67 2.67 0 0 1 2.038 4.391l4.154-4.939a6.99 6.99 0 0 0-4.082-3.437l-4.157 4.94a2.66 2.66 0 0 1 2.047-.956" fill="#4285f4"/><path d="M19.908 19.1a2.67 2.67 0 0 1-2.048-4.382l-4.24 5.04c.884 1.622 1.948 3.139 3.171 4.523l5.154-6.123a2.66 2.66 0 0 1-2.037.945" fill="#fbbc04"/><path d="M21.844 25.955c2.327-3.64 5.042-5.293 5.042-9.524.001-1.119-.268-2.222-.785-3.215l-9.308 11.07c.395.517.792 1.068 1.181 1.674 1.415 2.187 1.022 3.5 1.936 3.5s.519-1.313 1.934-3.5" fill="#34a853"/></svg>