<svg xmlns="http://www.w3.org/2000/svg" width="20.181" height="25.25" xmlns:v="https://vecta.io/nano"><defs><clipPath id="A"><path fill="none" d="M0 0h20.181v25.25H0z"/></clipPath></defs><g clip-path="url(#A)"><path d="M11.77,8.41a2.319,2.319,0,0,0-1.64-.7h-.07a2.369,2.369,0,0,0-1.64,4.05,2.251,2.251,0,0,0,1.67.7h.04a2.391,2.391,0,0,0,2.33-2.37,2.3,2.3,0,0,0-.69-1.68m0,0a2.319,2.319,0,0,0-1.64-.7h-.07a2.369,2.369,0,0,0-1.64,4.05,2.251,2.251,0,0,0,1.67.7h.04a2.391,2.391,0,0,0,2.33-2.37,2.3,2.3,0,0,0-.69-1.68m0,0a2.319,2.319,0,0,0-1.64-.7h-.07a2.369,2.369,0,0,0-1.64,4.05,2.251,2.251,0,0,0,1.67.7h.04a2.391,2.391,0,0,0,2.33-2.37,2.3,2.3,0,0,0-.69-1.68m0,0a2.319,2.319,0,0,0-1.64-.7h-.07a2.369,2.369,0,0,0-1.64,4.05,2.251,2.251,0,0,0,1.67.7h.04a2.391,2.391,0,0,0,2.33-2.37,2.3,2.3,0,0,0-.69-1.68m5.37-5.6A10.054,10.054,0,0,0,10.16,0h-.14A10.012,10.012,0,0,0,3.05,2.81,9.7,9.7,0,0,0,.01,10.33a12.456,12.456,0,0,0,2.51,6.88,42.752,42.752,0,0,0,7.57,8.04,42.134,42.134,0,0,0,7.57-8.04,12.456,12.456,0,0,0,2.51-6.88,9.726,9.726,0,0,0-3.03-7.52M16.07,15.68a35.5,35.5,0,0,1-5.85,6.58l-.13.11-.2-.18a35.412,35.412,0,0,1-5.77-6.51,10.172,10.172,0,0,1-1.94-5.33A8.04,8.04,0,0,1,4.47,4.46,7.673,7.673,0,0,1,10.1,2.17h.16a7.7,7.7,0,0,1,5.46,2.29,8.024,8.024,0,0,1,2.29,5.89,10.172,10.172,0,0,1-1.94,5.33M10.13,7.71h-.07a2.369,2.369,0,0,0-1.64,4.05,2.251,2.251,0,0,0,1.67.7h.04a2.391,2.391,0,0,0,2.33-2.37,2.374,2.374,0,0,0-2.33-2.38" fill="#fff"/></g></svg>